<svg xmlns="http://www.w3.org/2000/svg" xmlns:xlink="http://www.w3.org/1999/xlink" viewBox="0 0 48 48" version="1.1"><path d="M46.766 6.453c-1.024.531-7.051 3.73-13.004 15.281 0 0-1.918 4.215-3.059 5.774C29.957 25.742 28.078 22 24 22c-4.793 0-10.602 4.273-14.871 12.816L8 37c-2.957 1.207-8 1-8 1s1.43 3.004 7.922 3.004C12.625 41.004 18.875 39 25 39c3.285 0 5.316.723 6 .906 1.21.328 1.41-.328 1.41-.328s3.766-7.27 3.59-7.648c-.176-.375-.555-.403-.555-.403C33.45 31.22 31.68 31.031 30 31c-4.598-.086-7.883.992-13.98 3.496-1 .414-2.52 1.035-4.02 1.504 2.184-1.176 8.035-5.352 12.14-6.293 4.102-.941 6.86-.672 6.86-.672s.828-1.82 1.367-2.691c.54-.875 1.293-2.121 2.305-2.727 1.008-.605 2.957-1.496 3.648-2.336.688-.84 2.192-1.8 2.68-5.281 0 0 1-5.582 6.559-9.773L48 6s-.215-.074-1.234.453z" fill="#009688" id="surface1"/></svg>